<svg xmlns="http://www.w3.org/2000/svg" width="179" height="48.273" viewBox="0 0 179 48.273"><defs><style>.a{fill:#fff;}</style></defs><g transform="translate(-1.8 -0.5)"><g transform="translate(54.305 7.144)"><path class="a" d="M104.675,26.026a7.343,7.343,0,0,1,6.7-3.59c5.036,0,8.519,4.447,8.519,11.2,0,8.037-4.715,11.84-9.269,11.84a7.076,7.076,0,0,1-6.536-3.75h-.107l-.214,3.322H99.8c.054-1.5.161-3.911.161-5.893V12.9h4.661V26.08h.054Zm-.107,10.287a5.229,5.229,0,0,0,5.036,5.465c3.59,0,5.518-3.161,5.518-7.876,0-4.179-1.822-7.661-5.518-7.661-2.947,0-5.09,2.84-5.09,5.786v4.286Z" transform="translate(-99.8 -12.9)"/><path class="a" d="M250.323,31.429c-.107,1.554-.214,3.429-.214,6.376V50.395c0,4.393-.375,12.537-10.822,12.537a13.95,13.95,0,0,1-6.965-1.607l1.018-3.59a11.924,11.924,0,0,0,5.947,1.554c3.59,0,6.161-1.982,6.161-7.019V50.127h-.054a6.932,6.932,0,0,1-6.108,3.268c-5.2,0-8.787-4.608-8.787-10.769,0-7.5,4.5-11.626,9.322-11.626a6.4,6.4,0,0,1,6.054,3.429h.054l.214-2.947h4.179ZM245.5,39.947c0-2.947-1.929-5.3-4.768-5.3-3.215,0-5.465,3.054-5.465,7.769,0,4.34,1.982,7.394,5.411,7.394,2.411,0,4.822-1.822,4.822-5.518Z" transform="translate(-160.475 -21.303)"/><path class="a" d="M282.079,20.511a2.706,2.706,0,1,1,.054-5.411,2.6,2.6,0,0,1,2.679,2.732A2.6,2.6,0,0,1,282.079,20.511Zm2.357,25.556h-4.661V23.887h4.661Z" transform="translate(-183.176 -13.921)"/><path class="a" d="M319.977,53.356h-4.661V40.444c0-3.107-1.018-5.786-4.179-5.786-2.3,0-4.715,1.875-4.715,5.411V53.356h-4.661V37.5c0-2.465-.054-4.34-.161-6.215h4.018l.214,3.268h.107a7.559,7.559,0,0,1,6.7-3.75c3.429,0,7.286,2.25,7.286,9.054v13.5Z" transform="translate(-193.482 -21.21)"/><path class="a" d="M205.42,52.491a17.673,17.673,0,0,1-7.019,1.339c-6.643,0-10.5-4.447-10.5-11.144,0-6.59,3.7-11.787,9.912-11.787s8.679,5.143,8.679,10.608c0,.75-.054,1.393-.107,1.982H192.347c.107,4.983,3.215,6.858,6.7,6.858a13.972,13.972,0,0,0,5.572-1.018Zm-3.268-12.43c.054-2.625-1.018-5.947-4.608-5.947-3.429,0-4.822,3.375-5.09,5.947Z" transform="translate(-140.699 -21.256)"/><path class="a" d="M162.82,52.591a17.673,17.673,0,0,1-7.019,1.339c-6.644,0-10.5-4.447-10.5-11.144C145.3,36.2,149,31,155.212,31s8.679,5.143,8.679,10.608c0,.75-.054,1.393-.107,1.982H149.747c.107,4.983,3.215,6.858,6.7,6.858a13.972,13.972,0,0,0,5.572-1.018Zm-3.268-12.43c.054-2.625-1.018-5.947-4.608-5.947-3.429,0-4.822,3.375-5.09,5.947Z" transform="translate(-120.923 -21.303)"/></g><g transform="translate(1.8 0.5)"><circle class="a" cx="3.268" cy="3.268" r="3.268" transform="translate(8.679 19.341)"/><circle class="a" cx="3" cy="3" r="3" transform="translate(24.217 27.699)"/><circle class="a" cx="3.268" cy="3.268" r="3.268" transform="translate(0.321 9.43)"/><circle class="a" cx="3.322" cy="3.322" r="3.322" transform="translate(17.091)"/><circle class="a" cx="3.59" cy="3.59" r="3.59" transform="translate(33.378 9.43)"/><circle class="a" cx="3.5" cy="3.5" r="3.5" transform="translate(0 28)"/><circle class="a" cx="3.322" cy="3.322" r="3.322" transform="translate(17.091 38.736)"/><circle class="a" cx="3" cy="3" r="3" transform="translate(17.412 16.394)"/><path class="a" d="M9.906,25.542a5.331,5.331,0,0,1-1.5,3.482A6.184,6.184,0,0,1,4.87,30.632c-2.089.321-2.947,1.554-2.786,3.268a3.184,3.184,0,0,0,3.268,2.947A2.991,2.991,0,0,0,8.3,33.685a5.805,5.805,0,0,1,1.125-3.7A5.5,5.5,0,0,1,13.388,27.9h0a2.709,2.709,0,0,0,2.786-3.054A3.184,3.184,0,0,0,12.906,21.9a3.1,3.1,0,0,0-2.2,1.072C10.174,23.452,10.12,24.256,9.906,25.542Z" transform="translate(-1.923 -10.433)"/><path class="a" d="M59.419,36.725s-2.143-1.982-4.233-.214a3.273,3.273,0,0,1-4.34.107,3.359,3.359,0,0,1-1.072-2.357v-.054a3.173,3.173,0,0,1,.964-2.25c1.822-1.929-.268-4.125-.268-4.125a3.189,3.189,0,0,1,.161-4.233,3.137,3.137,0,0,1,4.447,0,2.974,2.974,0,0,1,.214,4.233c-.911,1.072-1.5,2.679-.268,4.018a3.178,3.178,0,0,0,4.34.054,3.132,3.132,0,0,1,4.179,4.661A3.045,3.045,0,0,1,59.419,36.725Z" transform="translate(-24.058 -10.794)"/><path class="a" d="M39.351,57.558a2.957,2.957,0,0,0,.161-3.965,3.107,3.107,0,0,1,0-4.125,2.946,2.946,0,0,0-4.393-3.911,2.951,2.951,0,0,0-.214,3.911,3.107,3.107,0,0,1,0,4.125,2.959,2.959,0,0,0,.161,3.965,2.917,2.917,0,0,0,2.089.857A3.218,3.218,0,0,0,39.351,57.558Z" transform="translate(-16.849 -21.019)"/><path class="a" d="M40.888,9.545a3.015,3.015,0,0,0-5.411.857c-.8,2.465-1.768,2.572-3.7,2.465a6.457,6.457,0,0,0-1.018,0H29.744c-1.929.107-2.947.054-3.7-2.465a3.015,3.015,0,0,0-5.411-.857,3.019,3.019,0,0,0,2.786,4.715c2.679-.107,3.482,1.072,4.233,2.625A3.863,3.863,0,0,0,29.8,18.868a.453.453,0,0,0,.321.107,3.884,3.884,0,0,0,1.286,0,.761.761,0,0,0,.321-.107,3.7,3.7,0,0,0,2.143-1.982c.75-1.554,1.554-2.732,4.233-2.625a3.019,3.019,0,0,0,2.786-4.715Z" transform="translate(-10.296 -4.081)"/><path class="a" d="M23.544,64a2.89,2.89,0,0,0,.161-3.911,3.107,3.107,0,0,1,0-4.125,2.932,2.932,0,0,0-2.25-4.768,2.714,2.714,0,0,0-2.036.857,2.951,2.951,0,0,0-.214,3.911,3.107,3.107,0,0,1,0,4.125,2.9,2.9,0,0,0,2.25,4.768A3.205,3.205,0,0,0,23.544,64Z" transform="translate(-9.56 -24.037)"/><path class="a" d="M55,66.174a3.093,3.093,0,0,0,3.643-2.036,3.3,3.3,0,0,1,3.7-2.3,3.115,3.115,0,0,0,3.429-2.357A3,3,0,0,0,65.4,57.12a3.059,3.059,0,0,0-1.929-1.393,3.121,3.121,0,0,0-3.643,2.036c-.589,1.661-1.179,2.947-3.482,2.357a3.055,3.055,0,0,0-3.7,2.3,3.528,3.528,0,0,0,.375,2.357A3.256,3.256,0,0,0,55,66.174Z" transform="translate(-25.376 -26.099)"/></g></g></svg>