<svg xmlns="http://www.w3.org/2000/svg" viewBox="0 0 31 35" width="31" height="35">
	<style>
		tspan { white-space:pre }
		.shp0 { fill: #ffffff } 
	</style>
	<g id="Layer">
		<g id="Layer">
			<path id="Layer" fill-rule="evenodd" class="shp0" d="M42.96 14.8C43.21 14.37 43.52 13.98 43.88 13.63C44.24 13.29 44.65 12.99 45.09 12.76C45.53 12.52 46 12.35 46.48 12.24C46.97 12.13 47.47 12.09 47.97 12.11C51.74 12.11 54.35 15.44 54.35 20.49C54.35 26.51 50.82 29.36 47.41 29.36C46.91 29.38 46.41 29.33 45.93 29.21C45.45 29.09 44.99 28.91 44.56 28.66C44.13 28.41 43.73 28.11 43.39 27.75C43.04 27.39 42.75 26.99 42.51 26.55L42.43 26.55L42.27 29.04L39.31 29.04C39.35 27.92 39.43 26.11 39.43 24.63L39.43 4.97L42.92 4.97L42.92 14.84L42.96 14.84L42.96 14.8ZM42.88 22.5C42.85 23.02 42.93 23.53 43.11 24.02C43.29 24.5 43.56 24.95 43.91 25.33C44.26 25.71 44.68 26.02 45.15 26.23C45.62 26.45 46.13 26.57 46.65 26.59C49.33 26.59 50.78 24.22 50.78 20.69C50.78 17.56 49.41 14.95 46.65 14.95C44.44 14.95 42.84 17.08 42.84 19.29L42.84 22.5L42.88 22.5Z" />
			<path id="Layer" fill-rule="evenodd" class="shp0" d="M106.57 12.6L106.56 12.6C106.56 12.59 106.57 12.57 106.57 12.55L106.57 12.6ZM106.41 17.33L106.41 26.75C106.41 30.04 106.13 36.14 98.31 36.14C97.86 36.15 97.4 36.14 96.96 36.09C96.51 36.05 96.06 35.98 95.62 35.88C95.18 35.77 94.75 35.64 94.33 35.49C93.9 35.33 93.49 35.15 93.09 34.94L93.86 32.25C94.19 32.44 94.54 32.61 94.9 32.76C95.26 32.9 95.63 33.02 96 33.12C96.38 33.22 96.76 33.29 97.15 33.34C97.53 33.39 97.92 33.41 98.31 33.41C100.99 33.41 102.92 31.93 102.92 28.16L102.92 26.56L102.88 26.56C102.64 26.94 102.35 27.29 102.02 27.6C101.69 27.91 101.32 28.18 100.92 28.39C100.52 28.61 100.1 28.77 99.65 28.87C99.21 28.97 98.76 29.02 98.31 29.01C94.42 29.01 91.73 25.56 91.73 20.94C91.73 15.33 95.1 12.24 98.71 12.24C99.17 12.22 99.63 12.25 100.08 12.36C100.52 12.46 100.95 12.63 101.35 12.86C101.75 13.08 102.12 13.37 102.44 13.7C102.76 14.03 103.03 14.4 103.24 14.81L103.28 14.81L103.44 12.6L106.56 12.6C106.48 13.76 106.41 15.15 106.41 17.33ZM102.96 18.93C103 18.43 102.93 17.93 102.77 17.46C102.61 16.99 102.36 16.55 102.02 16.18C101.69 15.81 101.28 15.51 100.83 15.3C100.38 15.09 99.89 14.97 99.39 14.96C96.98 14.96 95.3 17.25 95.3 20.78C95.3 24.03 96.78 26.31 99.35 26.31C101.15 26.31 102.96 24.95 102.96 22.18L102.96 18.93Z" />
			<path id="Layer" class="shp0" d="M113.34 9.91C112.52 9.9 111.79 9.4 111.48 8.64C111.18 7.88 111.36 7.01 111.94 6.43C112.53 5.86 113.4 5.69 114.16 6.02C114.91 6.34 115.4 7.08 115.39 7.9C115.4 8.17 115.35 8.44 115.25 8.69C115.14 8.93 114.99 9.16 114.8 9.35C114.61 9.54 114.38 9.68 114.13 9.78C113.88 9.87 113.61 9.92 113.34 9.91L113.34 9.91ZM115.11 29.04L111.62 29.04L111.62 12.44L115.11 12.44L115.11 29.04Z" />
			<path id="Layer" class="shp0" d="M134 29.04L130.51 29.04L130.51 19.37C130.51 17.04 129.75 15.04 127.38 15.04C125.66 15.04 123.85 16.44 123.85 19.09L123.85 29.04L120.36 29.04L120.36 17.17C120.36 15.32 120.32 13.92 120.24 12.51L123.25 12.51L123.41 14.96L123.49 14.96C123.74 14.53 124.05 14.13 124.41 13.77C124.77 13.42 125.18 13.12 125.61 12.87C126.05 12.63 126.52 12.44 127.01 12.32C127.5 12.2 128 12.14 128.5 12.15C131.07 12.15 133.96 13.84 133.96 18.93L133.96 29.04L134 29.04Z" />
			<path id="Layer" fill-rule="evenodd" class="shp0" d="M87.76 28.36C87.34 28.53 86.92 28.68 86.49 28.8C86.06 28.93 85.62 29.04 85.18 29.12C84.74 29.21 84.29 29.27 83.85 29.31C83.4 29.35 82.95 29.36 82.5 29.36C77.53 29.36 74.64 26.03 74.64 21.01C74.64 16.08 77.41 12.19 82.06 12.19C86.71 12.19 88.56 16.04 88.56 20.13C88.56 20.69 88.52 21.17 88.48 21.61L77.97 21.61C78.05 25.34 80.38 26.75 82.98 26.75C83.34 26.76 83.69 26.75 84.05 26.72C84.4 26.69 84.76 26.64 85.11 26.58C85.46 26.52 85.8 26.43 86.15 26.34C86.49 26.24 86.82 26.12 87.15 25.99L87.76 28.36ZM85.31 19.06C85.35 17.09 84.55 14.6 81.86 14.6C79.29 14.6 78.25 17.13 78.05 19.06L85.31 19.06Z" />
			<path id="Layer" fill-rule="evenodd" class="shp0" d="M70.67 28.39C70.26 28.57 69.83 28.72 69.4 28.84C68.97 28.97 68.54 29.08 68.09 29.16C67.65 29.25 67.21 29.31 66.76 29.35C66.31 29.39 65.86 29.4 65.42 29.39C60.44 29.39 57.56 26.07 57.56 21.05C57.56 16.12 60.32 12.23 64.97 12.23C69.63 12.23 71.47 16.08 71.47 20.17C71.47 20.73 71.44 21.21 71.39 21.65L60.88 21.65C60.96 25.38 63.29 26.79 65.9 26.79C66.25 26.8 66.61 26.79 66.96 26.76C67.32 26.73 67.67 26.68 68.02 26.62C68.37 26.56 68.72 26.47 69.06 26.38C69.4 26.28 69.74 26.16 70.07 26.03L70.67 28.39ZM68.22 19.09C68.26 17.13 67.46 14.64 64.77 14.64C62.21 14.64 61.16 17.17 60.96 19.09L68.22 19.09Z" />
		</g>
		<g id="Layer">
			<path id="Layer" class="shp0" d="M8.95 19.37C7.59 19.37 6.5 18.28 6.5 16.93C6.5 15.57 7.59 14.48 8.95 14.48C10.3 14.48 11.39 15.57 11.39 16.93C11.39 18.28 10.3 19.37 8.95 19.37Z" />
			<path id="Layer" class="shp0" d="M20.38 25.23C19.13 25.23 18.13 24.22 18.13 22.98C18.13 21.74 19.13 20.74 20.38 20.74C21.62 20.74 22.62 21.74 22.62 22.98C22.62 24.22 21.62 25.23 20.38 25.23Z" />
			<path id="Layer" class="shp0" d="M2.69 11.95C1.33 11.95 0.24 10.86 0.24 9.51C0.24 8.15 1.33 7.06 2.69 7.06C4.04 7.06 5.13 8.15 5.13 9.51C5.13 10.86 4.04 11.95 2.69 11.95Z" />
			<path id="Layer" class="shp0" d="M15.28 4.97C13.91 4.97 12.79 3.86 12.79 2.49C12.79 1.11 13.91 0 15.28 0C16.66 0 17.77 1.11 17.77 2.49C17.77 3.86 16.66 4.97 15.28 4.97Z" />
			<path id="Layer" class="shp0" d="M27.67 12.43C26.19 12.43 24.99 11.23 24.99 9.75C24.99 8.26 26.19 7.06 27.67 7.06C29.16 7.06 30.36 8.26 30.36 9.75C30.36 11.23 29.16 12.43 27.67 12.43Z" />
			<path id="Layer" class="shp0" d="M2.5 26C1.12 26 0 24.88 0 23.5C0 22.12 1.12 21 2.5 21C3.88 21 5 22.12 5 23.5C5 24.88 3.88 26 2.5 26Z" />
			<path id="Layer" class="shp0" d="M15.28 33.97C13.91 33.97 12.79 32.86 12.79 31.48C12.79 30.11 13.91 29 15.28 29C16.66 29 17.77 30.11 17.77 31.48C17.77 32.86 16.66 33.97 15.28 33.97Z" />
			<path id="Layer" class="shp0" d="M15.28 16.77C14.04 16.77 13.04 15.76 13.04 14.52C13.04 13.28 14.04 12.27 15.28 12.27C16.52 12.27 17.53 13.28 17.53 14.52C17.53 15.76 16.52 16.77 15.28 16.77Z" />
			<path id="Layer" class="shp0" d="M5.98 11.31C5.97 11.55 5.93 11.79 5.88 12.03C5.83 12.26 5.75 12.5 5.66 12.72C5.56 12.94 5.44 13.15 5.31 13.35C5.17 13.56 5.02 13.74 4.85 13.92C4.67 14.09 4.48 14.24 4.27 14.37C4.07 14.51 3.85 14.63 3.63 14.73C3.4 14.83 3.17 14.92 2.93 14.98C2.69 15.05 2.45 15.09 2.21 15.12C1.9 15.12 1.6 15.19 1.32 15.32C1.05 15.44 0.8 15.63 0.6 15.86C0.4 16.1 0.26 16.37 0.18 16.66C0.09 16.96 0.07 17.26 0.12 17.57C0.14 17.87 0.22 18.16 0.36 18.44C0.49 18.71 0.68 18.96 0.9 19.16C1.13 19.36 1.39 19.52 1.68 19.63C1.96 19.73 2.26 19.78 2.57 19.77C2.87 19.77 3.17 19.7 3.44 19.58C3.72 19.46 3.97 19.28 4.18 19.06C4.38 18.84 4.54 18.58 4.64 18.29C4.75 18.01 4.79 17.71 4.77 17.41C4.76 17.16 4.77 16.91 4.8 16.67C4.84 16.43 4.89 16.18 4.96 15.95C5.03 15.71 5.12 15.49 5.23 15.27C5.34 15.05 5.47 14.84 5.62 14.64C5.79 14.41 6 14.2 6.22 14.02C6.44 13.83 6.68 13.67 6.93 13.54C7.19 13.41 7.46 13.3 7.73 13.22C8.01 13.14 8.3 13.09 8.58 13.07L8.58 13.07C8.88 13.08 9.17 13.03 9.44 12.92C9.72 12.8 9.96 12.63 10.16 12.41C10.36 12.2 10.5 11.94 10.59 11.66C10.68 11.37 10.71 11.08 10.67 10.79C10.65 10.48 10.57 10.19 10.43 9.91C10.3 9.64 10.11 9.4 9.89 9.2C9.66 8.99 9.4 8.83 9.11 8.73C8.83 8.63 8.53 8.58 8.22 8.58C8.07 8.59 7.91 8.62 7.76 8.65C7.61 8.69 7.46 8.75 7.32 8.82C7.18 8.88 7.04 8.97 6.92 9.06C6.8 9.16 6.68 9.27 6.58 9.38C6.18 9.75 6.14 10.35 5.98 11.31Z" />
			<path id="Layer" class="shp0" d="M26.47 19.41C26.26 19.21 26.02 19.05 25.75 18.94C25.49 18.82 25.2 18.76 24.92 18.74C24.63 18.73 24.34 18.76 24.06 18.85C23.79 18.94 23.53 19.07 23.3 19.25C23.08 19.45 22.83 19.62 22.56 19.73C22.28 19.84 21.99 19.9 21.69 19.91C21.4 19.92 21.1 19.87 20.82 19.77C20.54 19.67 20.28 19.52 20.05 19.33C19.93 19.22 19.82 19.09 19.72 18.96C19.63 18.82 19.54 18.68 19.48 18.53C19.41 18.38 19.35 18.22 19.32 18.06C19.28 17.9 19.26 17.73 19.25 17.57L19.25 17.53C19.25 17.37 19.27 17.21 19.3 17.06C19.34 16.91 19.38 16.76 19.44 16.61C19.51 16.47 19.58 16.33 19.67 16.2C19.76 16.07 19.86 15.95 19.97 15.84C21.34 14.4 19.78 12.75 19.78 12.75C19.59 12.53 19.45 12.27 19.36 12C19.26 11.73 19.22 11.44 19.23 11.15C19.24 10.86 19.31 10.57 19.42 10.31C19.53 10.04 19.69 9.79 19.89 9.58C20.11 9.37 20.37 9.19 20.66 9.07C20.94 8.95 21.25 8.89 21.56 8.89C21.87 8.89 22.18 8.95 22.46 9.07C22.75 9.19 23.01 9.37 23.22 9.58C23.44 9.78 23.62 10.02 23.75 10.29C23.88 10.55 23.95 10.84 23.97 11.14C23.98 11.43 23.94 11.73 23.84 12C23.74 12.28 23.58 12.54 23.38 12.75C23.18 12.94 23.01 13.17 22.89 13.42C22.77 13.67 22.7 13.94 22.68 14.22C22.66 14.5 22.7 14.77 22.78 15.04C22.87 15.3 23.01 15.55 23.18 15.76C23.4 15.97 23.65 16.13 23.93 16.25C24.21 16.36 24.5 16.42 24.8 16.42C25.1 16.43 25.4 16.37 25.68 16.27C25.96 16.16 26.21 16 26.43 15.8C26.9 15.42 27.5 15.23 28.1 15.27C28.7 15.32 29.27 15.6 29.67 16.05C30.07 16.5 30.29 17.09 30.27 17.69C30.25 18.3 29.99 18.87 29.56 19.29C29.36 19.49 29.12 19.65 28.86 19.77C28.6 19.88 28.32 19.94 28.04 19.96C27.76 19.97 27.47 19.92 27.2 19.83C26.94 19.74 26.69 19.6 26.47 19.41L26.47 19.41Z" />
			<path id="Layer" class="shp0" d="M16.85 27.35C17.04 27.16 17.19 26.93 17.3 26.68C17.4 26.43 17.47 26.17 17.48 25.89C17.49 25.62 17.45 25.35 17.36 25.09C17.27 24.83 17.14 24.59 16.96 24.39C16.78 24.17 16.63 23.93 16.53 23.67C16.43 23.4 16.38 23.12 16.38 22.84C16.38 22.56 16.43 22.28 16.53 22.02C16.63 21.75 16.78 21.51 16.96 21.3C17.31 20.86 17.48 20.3 17.43 19.74C17.38 19.18 17.12 18.66 16.7 18.29C16.28 17.92 15.73 17.72 15.17 17.73C14.61 17.75 14.07 17.97 13.68 18.37C13.49 18.56 13.34 18.78 13.23 19.03C13.12 19.27 13.05 19.54 13.04 19.8C13.03 20.07 13.06 20.34 13.14 20.59C13.22 20.85 13.35 21.09 13.52 21.3C13.7 21.51 13.85 21.75 13.95 22.02C14.05 22.28 14.1 22.56 14.1 22.84C14.1 23.12 14.05 23.4 13.95 23.67C13.85 23.93 13.7 24.17 13.52 24.39C13.34 24.6 13.21 24.83 13.12 25.09C13.03 25.35 12.99 25.62 13 25.89C13.02 26.16 13.08 26.43 13.18 26.68C13.29 26.93 13.45 27.16 13.64 27.35C13.74 27.46 13.85 27.55 13.97 27.63C14.09 27.71 14.22 27.78 14.35 27.83C14.49 27.89 14.63 27.93 14.77 27.96C14.91 27.98 15.06 28 15.2 28C15.35 28 15.5 27.98 15.65 27.96C15.8 27.93 15.94 27.89 16.08 27.83C16.22 27.78 16.36 27.71 16.49 27.63C16.61 27.55 16.73 27.46 16.85 27.35Z" />
			<path id="Layer" class="shp0" d="M22.9 4.09C22.66 3.73 22.33 3.45 21.93 3.28C21.53 3.1 21.1 3.05 20.67 3.11C20.24 3.18 19.85 3.37 19.52 3.66C19.2 3.94 18.97 4.32 18.85 4.73C18.25 6.58 17.53 6.66 16.08 6.58C16.02 6.57 15.96 6.57 15.89 6.57C15.83 6.56 15.77 6.56 15.7 6.56C15.64 6.56 15.58 6.56 15.51 6.57C15.45 6.57 15.39 6.57 15.32 6.58L14.56 6.58C13.12 6.66 12.35 6.62 11.79 4.73C11.68 4.32 11.44 3.94 11.12 3.66C10.8 3.37 10.4 3.18 9.97 3.11C9.55 3.04 9.11 3.1 8.71 3.27C8.32 3.45 7.98 3.73 7.74 4.09C7.5 4.45 7.36 4.86 7.34 5.29C7.33 5.72 7.44 6.15 7.66 6.52C7.88 6.89 8.2 7.19 8.58 7.39C8.97 7.58 9.4 7.66 9.83 7.62C10.16 7.57 10.5 7.58 10.84 7.64C11.17 7.71 11.49 7.84 11.77 8.02C12.06 8.2 12.32 8.42 12.52 8.69C12.73 8.96 12.89 9.26 12.99 9.59C13.07 9.75 13.17 9.92 13.28 10.07C13.39 10.22 13.51 10.36 13.65 10.48C13.79 10.61 13.94 10.72 14.09 10.82C14.25 10.92 14.42 11 14.59 11.07C14.61 11.08 14.63 11.1 14.65 11.11C14.67 11.12 14.69 11.13 14.71 11.13C14.73 11.14 14.75 11.14 14.77 11.15C14.79 11.15 14.81 11.15 14.84 11.15C14.92 11.16 15 11.17 15.08 11.18C15.16 11.19 15.24 11.19 15.32 11.19C15.4 11.19 15.48 11.19 15.56 11.18C15.64 11.17 15.72 11.16 15.8 11.15C15.82 11.15 15.84 11.14 15.86 11.14C15.88 11.13 15.9 11.13 15.92 11.12C15.94 11.12 15.96 11.11 15.98 11.1C16 11.09 16.02 11.08 16.04 11.07C16.22 11.01 16.39 10.93 16.55 10.83C16.71 10.73 16.86 10.62 16.99 10.49C17.13 10.36 17.25 10.22 17.36 10.07C17.47 9.92 17.56 9.76 17.64 9.59C17.74 9.26 17.9 8.96 18.11 8.69C18.32 8.42 18.57 8.2 18.86 8.02C19.15 7.84 19.47 7.71 19.8 7.64C20.13 7.58 20.47 7.57 20.81 7.62C21.24 7.66 21.67 7.58 22.05 7.39C22.44 7.19 22.76 6.89 22.98 6.52C23.2 6.15 23.31 5.72 23.29 5.29C23.28 4.86 23.14 4.45 22.9 4.09L22.9 4.09Z" />
			<path id="Layer" class="shp0" d="M10.47 29.92C10.66 29.73 10.81 29.51 10.92 29.26C11.03 29.01 11.09 28.75 11.1 28.48C11.11 28.21 11.07 27.94 10.98 27.69C10.9 27.43 10.76 27.2 10.59 26.99C10.4 26.78 10.25 26.54 10.15 26.27C10.05 26.01 10 25.73 10 25.45C10 25.17 10.05 24.89 10.15 24.62C10.25 24.36 10.4 24.12 10.59 23.91C10.84 23.58 11 23.2 11.05 22.79C11.1 22.38 11.03 21.97 10.86 21.6C10.68 21.22 10.41 20.91 10.06 20.69C9.71 20.46 9.31 20.34 8.9 20.34C8.76 20.33 8.62 20.34 8.48 20.37C8.34 20.4 8.2 20.44 8.07 20.49C7.94 20.55 7.82 20.62 7.7 20.7C7.58 20.78 7.48 20.87 7.38 20.98C7.19 21.17 7.04 21.39 6.93 21.64C6.82 21.88 6.76 22.14 6.74 22.41C6.73 22.68 6.76 22.95 6.84 23.2C6.93 23.46 7.05 23.7 7.22 23.91C7.41 24.12 7.55 24.36 7.65 24.62C7.75 24.89 7.81 25.17 7.81 25.45C7.81 25.73 7.75 26.01 7.65 26.27C7.55 26.54 7.41 26.78 7.22 26.99C6.95 27.31 6.78 27.7 6.73 28.11C6.67 28.52 6.74 28.94 6.92 29.32C7.09 29.69 7.38 30.01 7.73 30.23C8.08 30.45 8.49 30.57 8.9 30.56C9.05 30.56 9.19 30.54 9.33 30.51C9.47 30.48 9.61 30.44 9.74 30.38C9.88 30.33 10.01 30.26 10.13 30.19C10.25 30.11 10.36 30.02 10.47 29.92Z" />
			<path id="Layer" class="shp0" d="M22.18 30C22.46 30.07 22.75 30.08 23.03 30.04C23.32 30 23.59 29.91 23.84 29.77C24.09 29.63 24.31 29.44 24.49 29.22C24.68 29 24.82 28.75 24.91 28.47C24.99 28.19 25.13 27.92 25.31 27.69C25.49 27.45 25.71 27.25 25.97 27.09C26.22 26.93 26.5 26.82 26.79 26.76C27.08 26.71 27.38 26.7 27.67 26.75C27.96 26.79 28.24 26.77 28.52 26.7C28.8 26.64 29.06 26.52 29.3 26.36C29.53 26.2 29.73 25.99 29.9 25.76C30.06 25.52 30.17 25.26 30.24 24.98C30.28 24.84 30.3 24.68 30.31 24.53C30.32 24.38 30.31 24.22 30.28 24.07C30.26 23.92 30.22 23.77 30.17 23.63C30.11 23.49 30.04 23.35 29.96 23.22C29.88 23.09 29.79 22.97 29.69 22.85C29.58 22.74 29.47 22.64 29.34 22.55C29.22 22.46 29.09 22.39 28.95 22.32C28.81 22.26 28.66 22.21 28.52 22.18C28.24 22.11 27.95 22.1 27.67 22.14C27.38 22.18 27.11 22.28 26.86 22.42C26.61 22.55 26.39 22.74 26.21 22.96C26.02 23.18 25.88 23.43 25.79 23.7C25.35 24.94 24.91 25.91 23.18 25.46C22.89 25.39 22.58 25.38 22.28 25.43C21.98 25.48 21.69 25.59 21.44 25.75C21.18 25.91 20.96 26.12 20.78 26.37C20.61 26.61 20.48 26.89 20.41 27.19C20.39 27.34 20.37 27.49 20.37 27.64C20.37 27.79 20.38 27.95 20.4 28.1C20.43 28.25 20.46 28.39 20.51 28.54C20.56 28.68 20.62 28.82 20.7 28.95C20.78 29.09 20.88 29.21 20.99 29.32C21.09 29.43 21.21 29.53 21.34 29.62C21.47 29.71 21.6 29.79 21.74 29.85C21.89 29.92 22.03 29.97 22.18 30Z" />
		</g>
	</g>
</svg>