<?xml version="1.0" encoding="UTF-8"?>
<!DOCTYPE svg PUBLIC "-//W3C//DTD SVG 1.1//EN" "http://www.w3.org/Graphics/SVG/1.1/DTD/svg11.dtd">
<!-- Creator: CorelDRAW 2020 (64 Bit) -->
<svg xmlns="http://www.w3.org/2000/svg" xml:space="preserve" width="362px" height="512px" version="1.1" style="shape-rendering:geometricPrecision; text-rendering:geometricPrecision; image-rendering:optimizeQuality; fill-rule:evenodd; clip-rule:evenodd"
viewBox="0 0 362 511.97"
 xmlns:xlink="http://www.w3.org/1999/xlink"
 xmlns:xodm="http://www.corel.com/coreldraw/odm/2003">
 <defs>
  <style type="text/css">
   <![CDATA[
    .fil3 {fill:#FFE074}
    .fil5 {fill:#FFCF57}
    .fil7 {fill:#FDBE36}
    .fil6 {fill:#FBB231}
    .fil4 {fill:#EC8E32}
    .fil2 {fill:#D0D2D4}
    .fil1 {fill:#E4E6E7}
    .fil0 {fill:#FEFEFE}
   ]]>
  </style>
 </defs>
 <g id="Camada_x0020_1">
  <metadata id="CorelCorpID_0Corel-Layer"/>
  <polygon class="fil0" points="111.68,249.16 111.68,290.18 99.84,283.34 99.84,242.32 "/>
  <polygon class="fil0" points="135.36,235.49 135.36,276.5 123.52,269.67 123.52,228.65 "/>
  <polygon class="fil1" points="123.52,242.32 111.68,249.16 111.68,290.18 123.52,283.34 "/>
  <polygon class="fil1" points="147.2,228.65 135.36,235.49 135.36,276.5 147.2,269.67 "/>
  <polygon class="fil2" points="111.68,249.16 99.84,242.32 111.68,235.49 123.52,242.32 "/>
  <polygon class="fil2" points="135.36,235.49 123.52,228.65 135.36,221.81 147.2,228.65 "/>
  <polygon class="fil1" points="135.36,249.16 135.36,262.83 123.52,269.67 123.52,255.99 "/>
  <polygon class="fil2" points="135.36,249.16 123.52,255.99 123.52,242.32 "/>
  <polygon class="fil3" points="123.52,297.01 135.36,290.18 123.52,283.34 "/>
  <polygon class="fil4" points="135.36,290.18 147.2,283.34 135.36,276.5 "/>
  <polygon class="fil5" points="147.2,283.34 159.04,276.5 147.2,269.67 "/>
  <polygon class="fil6" points="147.2,242.32 159.04,235.49 147.2,228.65 "/>
  <polygon class="fil7" points="135.36,290.18 123.52,283.34 135.36,276.5 "/>
  <polygon class="fil6" points="147.2,283.34 135.36,276.5 147.2,269.67 "/>
  <polygon class="fil6" points="159.04,262.83 147.2,255.99 159.04,249.16 "/>
  <polygon class="fil5" points="147.2,255.99 159.04,249.16 147.2,242.32 "/>
  <polygon class="fil3" points="159.04,276.5 147.2,269.67 159.04,262.83 "/>
  <polygon class="fil7" points="159.04,249.16 147.2,242.32 159.04,235.49 "/>
  <polygon class="fil6" points="99.84,242.32 111.68,235.49 99.84,228.65 "/>
  <polygon class="fil7" points="123.52,228.65 111.68,221.81 123.52,214.98 "/>
  <polygon class="fil4" points="147.2,269.67 159.04,262.83 147.2,255.99 "/>
  <polygon class="fil4" points="123.52,228.65 135.36,221.81 123.52,214.98 "/>
  <polygon class="fil3" points="111.68,235.49 99.84,228.65 111.68,221.81 "/>
  <polygon class="fil3" points="123.52,283.34 135.36,276.5 123.52,269.67 "/>
  <polygon class="fil7" points="88,276.5 99.84,269.67 88,262.83 "/>
  <polygon class="fil4" points="88,262.83 99.84,255.99 88,249.16 "/>
  <polygon class="fil7" points="88,249.16 99.84,242.32 88,235.49 "/>
  <polygon class="fil4" points="99.84,242.32 88,235.49 99.84,228.65 "/>
  <polygon class="fil5" points="111.68,235.49 123.52,228.65 111.68,221.81 "/>
  <polygon class="fil5" points="99.84,283.34 88,276.5 99.84,269.67 "/>
  <polygon class="fil6" points="99.84,269.67 88,262.83 99.84,255.99 "/>
  <polygon class="fil3" points="99.84,255.99 88,249.16 99.84,242.32 "/>
  <polygon class="fil4" points="123.52,242.32 111.68,235.49 123.52,228.65 "/>
  <polygon class="fil4" points="123.52,297.01 111.68,290.18 123.52,283.34 "/>
 </g>
</svg>
